# xmcd
#
# Track frame offsets: 
#        150
#        18163
#        37172
#        55603
#        71464
#        88298
#        108514
#        129731
#        147106
#        167739
#        184767
#        203124
#        221359
#        238452
#        255219
#        273767
#
# Disc length: 3853 seconds
#
# Revision: 0
# Processed by: cddbd v1.5.2PL0 Copyright (c) Steve Scherf et al.
# Submitted via: ExactAudioCopyFreeDBPlugin 1.0
#
DISCID=e40f0b10
DTITLE=35B - STE20试音极品TESTCD
DYEAR=2015
DGENRE=STE
TTITLE0=不装饰你的梦
TTITLE1=似是故人来
TTITLE2=何日再相逢
TTITLE3=纸船
TTITLE4=星星问
TTITLE5=其实我真的爱你
TTITLE6=偿还
TTITLE7=水仙情
TTITLE8=情比雨丝
TTITLE9=雪中情
TTITLE10=武侠帝女花
TTITLE11=祝福
TTITLE12=这一曲送给你
TTITLE13=情义两心坚
TTITLE14=摘星
TTITLE15=有缘再相聚
EXTD=
EXTT0=
EXTT1=
EXTT2=
EXTT3=
EXTT4=
EXTT5=
EXTT6=
EXTT7=
EXTT8=
EXTT9=
EXTT10=
EXTT11=
EXTT12=
EXTT13=
EXTT14=
EXTT15=
PLAYORDER=
